<svg width="115" height="50" viewBox="0 0 115 50" fill="none" xmlns="http://www.w3.org/2000/svg">
<path d="M9.09045 41.5865C7.8203 41.5865 6.65907 41.3514 5.60738 40.8825C4.55507 40.4136 3.67261 39.6911 2.95876 38.7163H2.74707C2.888 39.8572 2.95876 40.9385 2.95876 41.9606V50H0V21.6948H2.40738L2.81846 24.368H2.95876C3.71999 23.2985 4.60553 22.5262 5.61476 22.0517C6.62522 21.576 7.78399 21.3379 9.09045 21.3379C11.6812 21.3379 13.6812 22.2234 15.0892 23.9939C16.4972 25.765 17.2012 28.2486 17.2012 31.445C17.2012 34.6536 16.4849 37.1459 15.0523 38.9231C13.6209 40.6991 11.6338 41.5865 9.09045 41.5865ZM8.6646 23.8511C6.66707 23.8511 5.22338 24.4043 4.3323 25.5102C3.44123 26.6148 2.98338 28.373 2.95876 30.7853V31.445C2.95876 34.1889 3.41661 36.1526 4.3323 37.3354C5.24799 38.5169 6.71568 39.1077 8.73599 39.1077C10.4228 39.1077 11.7446 38.4252 12.7015 37.0597C13.6578 35.6929 14.1366 33.8093 14.1366 31.408C14.1366 28.973 13.6578 27.1047 12.7015 25.8031C11.7446 24.5022 10.3988 23.8511 8.6646 23.8511Z" fill="#222222"/>
<path d="M34.3828 41.2296L33.7945 38.448H33.6517C32.6769 39.6727 31.7052 40.5022 30.7372 40.9367C29.7686 41.3699 28.56 41.5865 27.1114 41.5865C25.1729 41.5865 23.6542 41.088 22.5551 40.0899C21.4572 39.0905 20.9083 37.6702 20.9083 35.829C20.9083 31.8844 24.0628 29.8167 30.3729 29.6259L33.6886 29.5201V28.3065C33.6886 26.7742 33.3588 25.6425 32.6991 24.9121C32.0394 24.1804 30.984 23.8142 29.5335 23.8142C27.9052 23.8142 26.064 24.3139 24.0099 25.3133L23.0991 23.0487C24.0622 22.5256 25.1163 22.1151 26.2622 21.8179C27.4092 21.5213 28.5594 21.3724 29.7132 21.3724C32.0418 21.3724 33.7674 21.8893 34.8898 22.9231C36.0135 23.957 36.576 25.6154 36.576 27.8979V41.2296H34.3828ZM27.6997 39.1447C29.5409 39.1447 30.9871 38.64 32.0394 37.6308C33.0911 36.6204 33.6172 35.2056 33.6172 33.3871V31.6222L30.6585 31.7477C28.3052 31.8302 26.608 32.1951 25.568 32.8431C24.5292 33.4917 24.0099 34.4985 24.0099 35.8634C24.0099 36.9336 24.3329 37.7484 24.9797 38.3077C25.6277 38.8659 26.5342 39.1447 27.6997 39.1447Z" fill="#222222"/>
<path d="M48.9799 39.1446C49.5018 39.1446 50.0064 39.1065 50.4938 39.0289C50.9811 38.952 51.3676 38.8714 51.6531 38.7877V41.0523C51.3331 41.2068 50.8605 41.3336 50.2353 41.4339C49.6113 41.5354 49.0501 41.5865 48.5516 41.5865C44.7719 41.5865 42.8827 39.5963 42.8827 35.6148V23.9939H40.0839V22.5662L42.8827 21.3379L44.1307 17.1656H45.8415V21.6948H51.5104V23.9939H45.8415V35.4893C45.8415 36.6659 46.1202 37.5693 46.6784 38.1994C47.2378 38.8296 48.0051 39.1446 48.9799 39.1446Z" fill="#222222"/>
<path d="M64.4679 21.3379C65.3356 21.3379 66.1147 21.4093 66.8039 21.552L66.3928 24.2967C65.5854 24.1182 64.8722 24.0283 64.2538 24.0283C62.6734 24.0283 61.3208 24.6702 60.1971 25.9533C59.0747 27.237 58.5135 28.8351 58.5135 30.7483V41.2296H55.5547V21.6948H57.9965L58.3362 25.3133H58.479C59.2039 24.0419 60.0771 23.061 61.0981 22.3717C62.1202 21.6825 63.2433 21.3379 64.4679 21.3379Z" fill="#222222"/>
<path d="M73.4136 41.2296H70.4548V21.6948H73.4136V41.2296ZM70.2062 16.4001C70.2062 15.7225 70.3723 15.2259 70.7059 14.9108C71.0388 14.5958 71.4548 14.4382 71.9539 14.4382C72.4277 14.4382 72.8376 14.5995 73.1822 14.9207C73.5268 15.2407 73.6991 15.7342 73.6991 16.4001C73.6991 17.0665 73.5268 17.5632 73.1822 17.8893C72.8376 18.2161 72.4277 18.3791 71.9539 18.3791C71.4548 18.3791 71.0388 18.2161 70.7059 17.8893C70.3723 17.5632 70.2062 17.0665 70.2062 16.4001Z" fill="#222222"/>
<path d="M92.1844 41.2296H78.0133V39.216L88.6718 23.9939H78.673V21.6948H91.9161V23.9939L81.4004 38.9305H92.1844V41.2296Z" fill="#222222"/>
<path d="M99.7204 41.2296H96.7617V21.6948H99.7204V41.2296ZM96.5131 16.4001C96.5131 15.7225 96.6792 15.2259 97.0128 14.9108C97.3457 14.5958 97.7617 14.4382 98.2608 14.4382C98.7346 14.4382 99.1444 14.5995 99.4891 14.9207C99.8337 15.2407 100.006 15.7342 100.006 16.4001C100.006 17.0665 99.8337 17.5632 99.4891 17.8893C99.1444 18.2161 98.7346 18.3791 98.2608 18.3791C97.7617 18.3791 97.3457 18.2161 97.0128 17.8893C96.6792 17.5632 96.5131 17.0665 96.5131 16.4001Z" fill="#222222"/>
<path d="M114.731 19.259H111.73C111.73 10.2806 104.451 3.00184 95.4718 3.00184V0C106.11 0 114.731 8.62153 114.731 19.259Z" fill="#35B729"/>
<path d="M108.728 19.259H105.726C105.726 13.5944 101.133 9.0055 95.4718 9.0055V6.00366C102.792 6.00366 108.728 11.9397 108.728 19.259Z" fill="#FFBD4A"/>
<path d="M101.223 16.3815C101.223 17.9729 99.937 19.259 98.3493 19.259C96.7586 19.259 95.4718 17.9729 95.4718 16.3815C95.4718 14.7944 96.7586 13.504 98.3493 13.504C99.937 13.5077 101.223 14.7944 101.223 16.3815Z" fill="#1A3493"/>
</svg>
